<svg width="81" height="93" viewBox="0 0 81 93" fill="none" xmlns="http://www.w3.org/2000/svg">
<g clip-path="url(#clip0_5329_15829)">
<path d="M40.4981 0L0 23.2712V69.7288L40.4981 93L80.9963 69.7288V23.2712L40.4981 0ZM38.1579 64.8934H8.19072L23.1318 39.2027L38.1616 47.8865V64.8934H38.1579ZM40.4981 43.8613L25.4683 35.1774L40.4981 9.21788L55.528 35.1774L40.4981 43.8613ZM57.7794 39.2064L72.7204 64.8971H42.7495V47.8018L57.7794 39.21V39.2064ZM45.0008 7.87736L73.9794 24.527L59.4901 32.85L45.0008 7.87736ZM21.421 32.9383L6.93175 24.5233L35.9103 7.87736L21.421 32.942V32.9383ZM19.0808 36.8789L4.59154 61.8515V28.5522L19.0808 36.8752V36.8789ZM38.1579 69.46V86.2864L8.8165 69.46H38.1579ZM42.7495 69.46H72.0909L42.7495 86.3784V69.46ZM61.8303 36.8789L76.3196 28.5559V61.8551L61.8303 36.8825V36.8789Z" fill="#4D98F1"/>
</g>
<defs>
<clipPath id="clip0_5329_15829">
<rect width="81" height="93" fill="white"/>
</clipPath>
</defs>
</svg>
